Coordinates
version=1
nRows=28
nColumns=41
inDegrees=yes

Units are S.I. units (second, meters, Newtons, ...)
If the header above contains a line with 'inDegrees', this indicates whether rotational values are in degrees (yes) or radians (no).

endheader
time	pelvis_tilt	pelvis_list	pelvis_rotation	pelvis_tx	pelvis_ty	pelvis_tz	hip_flexion_r	hip_adduction_r	hip_rotation_r	knee_angle_r	ankle_angle_r	subtalar_angle_r	mtp_angle_r	hip_flexion_l	hip_adduction_l	hip_rotation_l	knee_angle_l	ankle_angle_l	subtalar_angle_l	mtp_angle_l	L5_S1_Flex_Ext	L5_S1_Lat_Bending	L5_S1_axial_rotation	neck_flexion	neck_bending	neck_rotation	arm_flex_r	arm_add_r	arm_rot_r	elbow_flex_r	pro_sup_r	wrist_flex_r	wrist_dev_r	arm_flex_l	arm_add_l	arm_rot_l	elbow_flex_l	pro_sup_l	wrist_flex_l	wrist_dev_l
120.560000	-16.564164	23.772394	-586.542742	-0.078845	1.016981	-0.019667	23.861074	12.987860	0.000000	1.998832	0.000000	0.000000	0.000000	24.817743	-29.229771	0.000000	1.741310	0.000000	0.000000	0.000000	5.305230	32.053728	40.969754	28.647890	28.854404	44.999991	911.986993	-502.410945	2140.472531	94.537609	35.251664	-33.480926	-7.826428	-669.387787	-382.338217	-884.396249	150.000351	19.115240	-34.233318	-3.597055
120.640000	-16.319053	23.707150	-584.970182	-0.047454	1.040976	-0.006755	23.810053	13.547798	0.000000	1.861156	0.000000	0.000000	0.000000	25.515437	-28.006065	0.000000	2.271164	0.000000	0.000000	0.000000	5.567532	29.033864	41.339803	28.647890	28.612201	44.999991	911.255461	-509.870095	2136.164947	85.706592	30.367973	-28.137453	-6.665184	-680.350295	-362.697232	-898.120176	150.000351	0.000000	-24.661199	-5.521727
120.720000	-16.332492	22.904031	-582.440011	-0.024351	1.059965	-0.002828	23.898799	13.276098	0.000000	1.650717	0.000000	0.000000	0.000000	26.524533	-26.290489	0.000000	2.553925	0.000000	0.000000	0.000000	5.880007	25.955723	39.424229	28.647890	27.749917	44.999991	912.213385	-513.875724	2132.842882	81.436721	28.352182	-24.032145	-9.664539	-680.415838	-364.347794	-904.872449	149.631120	59.178758	-76.118629	-25.000000
120.800000	-16.198160	22.005948	-581.638705	-0.021886	1.063141	-0.003536	24.127698	12.822626	0.000000	1.736648	0.000000	0.000000	0.000000	26.918679	-25.742094	0.000000	2.470819	0.000000	0.000000	0.000000	5.817412	25.779293	38.533918	28.647890	26.173922	44.999991	912.594310	-513.747957	2131.832424	82.135686	28.484624	-24.250456	-8.486750	-675.640862	-377.860642	-906.928797	150.000351	55.209780	-76.800005	-21.962340
120.880000	-15.923717	21.547348	-581.670682	-0.029620	1.055785	-0.005917	24.445395	12.664587	0.000000	2.095635	0.000000	0.000000	0.000000	27.108274	-26.047312	0.000000	2.285226	0.000000	0.000000	0.000000	5.669791	26.581795	37.361190	28.647890	25.406195	44.999991	914.438726	-512.955382	2134.222362	85.938246	29.655627	-26.595668	-8.383254	-674.476054	-381.336323	-863.827728	150.000351	118.738574	-110.007897	-25.000000
120.960000	-15.729461	21.373541	-581.667445	-0.029573	1.051038	-0.004184	24.620096	12.804480	0.000000	2.549882	0.000000	0.000000	0.000000	27.221585	-26.310035	0.000000	2.319857	0.000000	0.000000	0.000000	5.585563	26.979795	37.833250	28.647890	24.815626	44.999991	914.998605	-512.610133	2134.503948	87.662606	32.034690	-27.589417	-10.556247	-677.654904	-380.792064	-857.893929	150.000351	110.249077	-110.007897	-25.000000
121.040000	-15.659759	20.968032	-580.943365	-0.024982	1.045734	-0.002085	24.742517	12.602173	0.000000	3.079296	0.000000	0.000000	0.000000	27.528421	-26.068275	0.000000	2.306433	0.000000	0.000000	0.000000	5.604377	26.582881	38.061111	28.647890	23.854812	44.999991	914.303706	-512.681228	2132.635214	86.392742	32.807097	-27.539320	-10.374791	-680.128517	-379.095000	-859.884053	150.000351	107.868494	-110.007897	-25.000000
121.120000	-15.662145	22.024166	-580.445250	-0.019692	1.036692	0.015799	24.102728	12.613896	0.000000	4.199299	0.000000	0.000000	0.000000	27.369897	-26.225986	0.000000	2.754208	0.000000	0.000000	0.000000	5.580525	26.305795	39.337145	28.647890	25.346814	44.999991	912.303086	-509.755458	2128.179543	84.272795	36.599939	-25.294992	-13.813579	-698.855932	-345.445396	-965.525909	106.943330	21.641926	-47.223427	-15.012978
121.200000	-15.663744	20.219674	-579.061373	-0.023102	1.019978	0.000133	24.582040	11.661197	0.000000	4.453440	0.000000	0.000000	0.000000	27.916921	-25.552096	0.000000	2.007423	0.000000	0.000000	0.000000	5.687169	25.506914	36.868473	28.647890	25.394037	44.999991	915.447466	-511.367796	2131.811175	87.423075	35.673022	-28.026701	-10.849436	-681.487278	-381.914651	-860.261097	150.000351	91.231384	-8.038077	-25.000000
121.280000	-15.651065	20.217847	-578.718818	-0.021043	1.011395	0.003208	24.513998	11.587642	0.000000	5.527822	0.000000	0.000000	0.000000	27.612657	-25.668696	0.000000	1.766395	0.000000	0.000000	0.000000	5.690762	25.357140	37.634467	28.647890	24.586820	44.999991	915.650587	-510.376821	2131.349803	88.205949	39.015727	-29.233937	-11.976628	-683.172404	-383.030281	-863.124988	150.000351	101.010010	-71.088486	-25.000000
121.360000	-15.648841	20.223646	-577.780367	-0.018971	1.006419	0.005880	24.423749	11.261395	0.000000	6.224761	0.000000	0.000000	0.000000	27.609724	-25.415144	0.000000	1.500806	0.000000	0.000000	0.000000	5.745881	24.736732	37.217130	28.647890	25.992810	44.999991	915.867595	-510.122695	2131.588055	87.125986	38.684743	-28.811444	-11.899065	-685.257624	-383.721623	-866.810080	150.000351	95.944169	-64.942242	-25.000000
121.440000	-15.743636	20.641277	-577.028521	-0.017391	0.998136	0.008449	24.312702	11.139967	0.000000	7.000092	0.000000	0.000000	0.000000	27.468249	-25.367233	0.000000	1.306480	0.000000	0.000000	0.000000	5.848967	24.069678	38.096753	28.647890	28.568425	44.999991	915.982797	-508.736040	2131.378270	87.333251	37.234430	-28.626772	-10.947597	-685.720810	-383.952858	-845.040128	145.977204	0.000000	-78.630771	-3.315421
121.520000	-15.738483	20.544185	-575.999876	-0.016460	0.991964	0.008730	24.572887	10.623519	0.000000	7.505210	0.000000	0.000000	0.000000	27.588784	-24.873318	0.000000	0.721096	0.000000	0.000000	0.000000	5.912362	23.417509	37.369493	28.647890	28.008387	44.999991	917.763664	-508.497501	2133.864431	88.031313	34.520385	-29.506548	-9.682632	-685.596406	-383.537154	-838.808339	150.000351	1.930274	-20.767164	35.000000
121.600000	-15.701190	20.684332	-574.910593	-0.015335	0.987158	0.009988	24.864725	10.176488	0.000000	7.969371	0.000000	0.000000	0.000000	27.667994	-24.427516	0.000000	0.000000	0.000000	0.000000	0.000000	5.979052	22.686457	36.374892	28.647890	32.073666	44.999991	919.162128	-508.703517	2135.547413	88.492761	32.001304	-30.046658	-8.714124	-686.655481	-383.356935	-841.504352	150.000351	0.000000	-21.717525	35.000000
121.680000	-15.778348	20.843840	-573.390171	-0.014206	0.982758	0.011839	25.209187	9.499138	0.000000	8.287839	0.000000	0.000000	0.000000	28.159786	-23.570896	0.000000	0.000000	0.000000	0.000000	0.000000	6.101093	21.462331	34.227753	28.647890	37.414788	44.999991	922.930378	-508.985179	2141.716389	91.226184	24.372848	-32.523007	0.274398	-688.516631	-381.799239	-863.210274	146.682104	25.268755	-18.709468	-3.211844
121.760000	-15.925704	21.059391	-571.676364	-0.013850	0.976624	0.013560	25.595201	8.711572	0.000000	8.532835	0.000000	0.000000	0.000000	28.582756	-22.733257	0.000000	0.000000	0.000000	0.000000	0.000000	6.262304	20.103994	31.980444	28.647890	40.082231	44.999991	924.764536	-509.649509	2145.483691	92.431166	16.492826	-36.997832	4.920654	-692.644817	-381.827927	-885.309126	138.064629	19.616259	-54.527022	-15.745033
121.840000	-16.148868	21.388732	-569.667375	-0.013796	0.967191	0.016060	25.971481	7.926034	0.000000	8.443580	0.000000	0.000000	0.000000	29.058298	-21.825085	0.000000	0.000000	0.000000	0.000000	0.000000	6.460812	18.567895	29.403022	28.647890	45.559478	44.999991	927.507769	-510.277886	2148.294937	96.085586	15.471970	-38.144156	4.238898	-698.156698	-381.850645	-904.862527	122.429289	24.462288	-58.040217	-22.751839
121.920000	-16.347058	21.714297	-567.298009	-0.012943	0.955676	0.019223	26.475569	6.918528	0.000000	8.534574	0.000000	0.000000	0.000000	29.747925	-20.679268	0.000000	0.000000	0.000000	0.000000	0.000000	6.658904	16.749016	27.009569	28.647890	49.999916	44.999991	929.007344	-511.333933	2149.961084	98.696811	14.492657	-40.478558	2.371475	-701.765206	-381.142339	-913.624429	109.559073	26.180669	-50.690321	-21.875947
122.000000	-16.576129	21.873773	-564.367918	-0.011265	0.944028	0.022214	26.997136	5.625459	0.000000	8.353958	0.000000	0.000000	0.000000	30.646958	-19.099481	0.000000	0.000000	0.000000	0.000000	0.000000	6.864533	14.597255	24.114362	28.647890	58.447943	44.999991	931.013760	-513.309053	2152.250400	102.309371	13.216726	-43.128490	0.409004	-703.410443	-380.874878	-917.413211	101.005360	28.890263	-44.317900	-21.811242
122.080000	-17.202697	21.685471	-560.545779	-0.011177	0.932824	0.024742	27.210115	3.674795	0.000000	7.598411	0.000000	0.000000	0.000000	31.486439	-16.884457	0.000000	0.000000	0.000000	0.000000	0.000000	7.216950	11.778764	20.053181	28.647890	68.063364	44.999991	934.471456	-515.204023	2155.260355	107.282154	8.486916	-44.208465	-2.494141	-704.668731	-381.896124	-921.029192	94.985047	29.247268	-40.271075	-18.977523
122.160000	-18.447093	20.537811	-554.300734	-0.013725	0.923719	0.027122	26.836469	0.095954	0.000000	5.949205	0.000000	0.000000	0.000000	32.356143	-12.912404	0.000000	0.000000	0.000000	0.000000	0.000000	7.792940	7.298604	13.701189	28.647890	79.694141	44.999991	938.573505	-516.321453	2157.100850	112.047428	3.907838	-40.404682	-10.784570	-704.349072	-385.016103	-923.129853	94.275297	24.770044	-38.028071	-13.960726
122.240000	-19.596114	17.517511	-543.323327	-0.016717	0.920511	0.029790	25.480084	-6.412923	0.000000	3.523374	0.000000	0.000000	0.000000	33.503728	-5.202818	0.000000	0.000000	0.000000	0.000000	0.000000	8.187056	-0.362129	3.475298	28.647890	87.404689	44.999991	940.900027	-518.184142	2157.426220	115.259886	0.721466	-37.323387	-13.569972	-703.073137	-389.370374	-923.557499	95.266383	22.767296	-35.805963	-11.325734
122.320000	-19.364473	14.237177	-532.646840	-0.017777	0.924827	0.032766	21.892407	-11.576139	0.000000	0.338429	0.000000	0.000000	0.000000	34.099044	2.778492	0.000000	0.000000	0.000000	0.000000	0.000000	7.831021	-7.707682	-6.328007	28.647890	90.000000	44.999991	940.353505	-522.042151	2157.575278	118.249341	0.000000	-38.418026	-17.527935	-703.162955	-391.662121	-923.052085	93.443808	24.215718	-36.120748	-10.752485
122.400000	-18.675957	13.690736	-531.146379	-0.014366	0.928723	0.031986	22.475671	-12.676721	0.000000	0.856817	0.000000	0.000000	0.000000	34.550776	3.923898	0.000000	0.000000	0.000000	0.000000	0.000000	7.497690	-8.793264	-7.808467	28.647890	90.000000	44.999991	938.407527	-526.229210	2157.475967	118.446655	0.000000	-41.093269	-11.491240	-705.263493	-389.965155	-923.859134	86.382545	25.279073	-34.905069	-11.425706
122.480000	-18.089809	13.162027	-529.951846	-0.012005	0.930679	0.030887	23.254023	-13.422270	0.000000	1.400671	0.000000	0.000000	0.000000	35.043316	4.774336	0.000000	0.000000	0.000000	0.000000	0.000000	7.209119	-9.670030	-9.113377	28.647890	90.000000	44.999991	936.668338	-529.548698	2156.988424	117.486325	0.000000	-43.868906	-9.973710	-706.553838	-388.138779	-924.060410	81.235236	25.134786	-34.378966	-11.282211
122.560000	-17.933617	12.815318	-529.619502	-0.011004	0.933950	0.030744	23.871778	-13.378790	0.000000	1.769547	0.000000	0.000000	0.000000	35.299834	4.784696	0.000000	0.000000	0.000000	0.000000	0.000000	7.126698	-9.775297	-9.834958	28.647890	90.000000	44.999991	936.729695	-530.956644	2156.870167	117.994922	2.448581	-43.051216	-12.930662	-706.368850	-386.753422	-924.142881	80.586860	25.718381	-34.166202	-12.564768
122.640000	-18.082315	13.107510	-531.730120	-0.009639	0.942201	0.031928	24.473564	-11.563820	0.000000	1.727746	0.000000	0.000000	0.000000	35.293682	2.845656	0.000000	0.000000	0.000000	0.000000	0.000000	7.259102	-8.049304	-8.205330	28.647890	90.000000	44.999991	937.362660	-530.192162	2158.168750	118.648112	0.000000	-44.419184	-6.952322	-705.253956	-384.704748	-925.403702	82.692435	25.890069	-34.702594	-13.566999
122.720000	-18.444604	14.496310	-537.541200	-0.010105	0.951988	0.033000	25.260818	-7.230549	0.000000	1.505108	0.000000	0.000000	0.000000	34.783191	-1.983508	0.000000	0.000000	0.000000	0.000000	0.000000	7.571176	-3.682769	-3.532352	28.647890	90.000000	44.999991	939.819897	-526.967247	2160.209909	120.654756	2.102034	-41.746108	-9.451871	-703.822836	-382.507058	-927.797481	86.376516	23.470818	-36.427972	-10.767905
